<?xml version="1.0" encoding="UTF-8"?>
<svg id="Layer_1" xmlns="http://www.w3.org/2000/svg" version="1.1" viewBox="0 0 1554.1 1027.6">
  <!-- Generator: Adobe Illustrator 29.2.1, SVG Export Plug-In . SVG Version: 2.1.0 Build 116)  -->
  <defs>
    <style>
      .st0 {
        fill: #e6e7e8;
      }
    </style>
  </defs>
  <path class="st0" d="M608.7,985.2c-9,0-13-1.9-18.4-4.6-6.6-3.2-14.7-7.2-29.8-7.2s-23.2,4-29.7,7.2c-5.5,2.7-9.4,4.6-18.4,4.6s-.2,0-.3,0v23c0,0,.2,0,.3,0,15,0,23.2-4,29.7-7.2,5.5-2.7,9.4-4.6,18.4-4.6s13,1.9,18.5,4.6c6.5,3.2,14.7,7.2,29.7,7.2v-23Z"/>
  <path class="st0" d="M732.1,985.2c-9,0-13-1.9-18.4-4.6-6.6-3.2-14.7-7.2-29.8-7.2s-23.2,4-29.7,7.2c-5.5,2.7-9.4,4.6-18.4,4.6s-.2,0-.3,0v23c0,0,.2,0,.3,0,15,0,23.2-4,29.7-7.2,5.5-2.7,9.4-4.6,18.4-4.6s13,1.9,18.5,4.6c6.5,3.2,14.7,7.2,29.7,7.2v-23Z"/>
  <path class="st0" d="M855.5,985.2c-9,0-13-1.9-18.4-4.6-6.6-3.2-14.7-7.2-29.8-7.2s-23.2,4-29.7,7.2c-5.5,2.7-9.4,4.6-18.4,4.6s-.2,0-.3,0v23c0,0,.2,0,.3,0,15,0,23.2-4,29.7-7.2,5.5-2.7,9.4-4.6,18.4-4.6s13,1.9,18.5,4.6c6.5,3.2,14.7,7.2,29.7,7.2v-23Z"/>
  <path class="st0" d="M978.9,985.2c-9,0-13-1.9-18.4-4.6-6.6-3.2-14.7-7.2-29.8-7.2s-23.2,4-29.7,7.2c-5.5,2.7-9.4,4.6-18.4,4.6s-.2,0-.3,0v23c0,0,.2,0,.3,0,15,0,23.2-4,29.7-7.2,5.5-2.7,9.4-4.6,18.4-4.6s13,1.9,18.5,4.6c6.5,3.2,14.7,7.2,29.7,7.2v-23Z"/>
  <path class="st0" d="M1102.2,985.2c-9,0-13-1.9-18.4-4.6-6.6-3.2-14.7-7.2-29.8-7.2s-23.2,4-29.7,7.2c-5.5,2.7-9.4,4.6-18.4,4.6s-.2,0-.3,0v23c0,0,.2,0,.3,0,15,0,23.2-4,29.7-7.2,5.5-2.7,9.4-4.6,18.4-4.6s13,1.9,18.5,4.6c6.5,3.2,14.7,7.2,29.7,7.2v-23Z"/>
  <path class="st0" d="M1225.6,985.2c-9,0-13-1.9-18.4-4.6-6.6-3.2-14.7-7.2-29.8-7.2s-23.2,4-29.7,7.2c-5.5,2.7-9.4,4.6-18.4,4.6s-.2,0-.3,0v23c0,0,.2,0,.3,0,15,0,23.2-4,29.7-7.2,5.5-2.7,9.4-4.6,18.4-4.6s13,1.9,18.5,4.6c6.5,3.2,14.7,7.2,29.7,7.2v-23Z"/>
  <path class="st0" d="M1349,985.2c-9,0-13-1.9-18.4-4.6-6.6-3.2-14.7-7.2-29.8-7.2s-23.2,4-29.7,7.2c-5.5,2.7-9.4,4.6-18.4,4.6s-.2,0-.3,0v23c0,0,.2,0,.3,0,15,0,23.2-4,29.7-7.2,5.5-2.7,9.4-4.6,18.4-4.6s13,1.9,18.5,4.6c6.5,3.2,14.7,7.2,29.7,7.2v-23Z"/>
  <path class="st0" d="M1472.4,985.2c-9,0-13-1.9-18.4-4.6-6.6-3.2-14.7-7.2-29.8-7.2s-23.2,4-29.7,7.2c-5.5,2.7-9.4,4.6-18.4,4.6s-.2,0-.3,0v23c0,0,.2,0,.3,0,15,0,23.2-4,29.7-7.2,5.5-2.7,9.4-4.6,18.4-4.6s13,1.9,18.5,4.6c6.5,3.2,14.7,7.2,29.7,7.2v-23Z"/>
  <path class="st0" d="M670.4,921.6c-9,0-13-1.9-18.4-4.6-6.6-3.2-14.7-7.2-29.8-7.2s-23.2,4-29.7,7.2c-5.5,2.7-9.4,4.6-18.4,4.6s-.2,0-.3,0v23c0,0,.2,0,.3,0,15,0,23.2-4,29.7-7.2,5.5-2.7,9.4-4.6,18.4-4.6s13,1.9,18.5,4.6c6.5,3.2,14.7,7.2,29.7,7.2v-23Z"/>
  <path class="st0" d="M793.8,921.6c-9,0-13-1.9-18.4-4.6-6.6-3.2-14.7-7.2-29.8-7.2s-23.2,4-29.7,7.2c-5.5,2.7-9.4,4.6-18.4,4.6s-.2,0-.3,0v23c0,0,.2,0,.3,0,15,0,23.2-4,29.7-7.2,5.5-2.7,9.4-4.6,18.4-4.6s13,1.9,18.5,4.6c6.5,3.2,14.7,7.2,29.7,7.2v-23Z"/>
  <path class="st0" d="M917.2,921.6c-9,0-13-1.9-18.4-4.6-6.6-3.2-14.7-7.2-29.8-7.2s-23.2,4-29.7,7.2c-5.5,2.7-9.4,4.6-18.4,4.6s-.2,0-.3,0v23c0,0,.2,0,.3,0,15,0,23.2-4,29.7-7.2,5.5-2.7,9.4-4.6,18.4-4.6s13,1.9,18.5,4.6c6.5,3.2,14.7,7.2,29.7,7.2v-23Z"/>
  <path class="st0" d="M1040.6,921.6c-9,0-13-1.9-18.4-4.6-6.6-3.2-14.7-7.2-29.8-7.2s-23.2,4-29.7,7.2c-5.5,2.7-9.4,4.6-18.4,4.6s-.2,0-.3,0v23c0,0,.2,0,.3,0,15,0,23.2-4,29.7-7.2,5.5-2.7,9.4-4.6,18.4-4.6s13,1.9,18.5,4.6c6.5,3.2,14.7,7.2,29.7,7.2v-23Z"/>
  <path class="st0" d="M1163.9,921.6c-9,0-13-1.9-18.4-4.6-6.6-3.2-14.7-7.2-29.8-7.2s-23.2,4-29.7,7.2c-5.5,2.7-9.4,4.6-18.4,4.6s-.2,0-.3,0v23c0,0,.2,0,.3,0,15,0,23.2-4,29.7-7.2,5.5-2.7,9.4-4.6,18.4-4.6s13,1.9,18.5,4.6c6.5,3.2,14.7,7.2,29.7,7.2v-23Z"/>
  <path class="st0" d="M1287.3,921.6c-9,0-13-1.9-18.4-4.6-6.6-3.2-14.7-7.2-29.8-7.2s-23.2,4-29.7,7.2c-5.5,2.7-9.4,4.6-18.4,4.6s-.2,0-.3,0v23c0,0,.2,0,.3,0,15,0,23.2-4,29.7-7.2,5.5-2.7,9.4-4.6,18.4-4.6s13,1.9,18.5,4.6c6.5,3.2,14.7,7.2,29.7,7.2v-23Z"/>
  <path class="st0" d="M1410.7,921.6c-9,0-13-1.9-18.4-4.6-6.6-3.2-14.7-7.2-29.8-7.2s-23.2,4-29.7,7.2c-5.5,2.7-9.4,4.6-18.4,4.6s-.2,0-.3,0v23c0,0,.2,0,.3,0,15,0,23.2-4,29.7-7.2,5.5-2.7,9.4-4.6,18.4-4.6s13,1.9,18.5,4.6c6.5,3.2,14.7,7.2,29.7,7.2v-23Z"/>
  <path class="st0" d="M1534,921.6c-9,0-13-1.9-18.4-4.6-6.6-3.2-14.7-7.2-29.8-7.2s-23.2,4-29.7,7.2c-5.5,2.7-9.4,4.6-18.4,4.6s-.2,0-.3,0v23c0,0,.2,0,.3,0,15,0,23.2-4,29.7-7.2,5.5-2.7,9.4-4.6,18.4-4.6s13,1.9,18.5,4.6c6.5,3.2,14.7,7.2,29.7,7.2v-23Z"/>
  <path class="st0" d="M362.1,858c-9,0-13-1.9-18.4-4.6-6.6-3.2-14.7-7.2-29.8-7.2s-23.2,4-29.7,7.2c-5.5,2.7-9.4,4.6-18.4,4.6s-.2,0-.3,0v23c0,0,.2,0,.3,0,15,0,23.2-4,29.7-7.2,5.5-2.7,9.4-4.6,18.4-4.6s13,1.9,18.5,4.6c6.5,3.2,14.7,7.2,29.7,7.2v-23Z"/>
  <path class="st0" d="M362.1,985.2c-9,0-13-1.9-18.4-4.6-6.6-3.2-14.7-7.2-29.8-7.2s-23.2,4-29.7,7.2c-5.5,2.7-9.4,4.6-18.4,4.6s-.2,0-.3,0v23c0,0,.2,0,.3,0,15,0,23.2-4,29.7-7.2,5.5-2.7,9.4-4.6,18.4-4.6s13,1.9,18.5,4.6c6.5,3.2,14.7,7.2,29.7,7.2v-23Z"/>
  <path class="st0" d="M116.7,985.2c-9,0-13-1.9-18.4-4.6-6.6-3.2-14.7-7.2-29.8-7.2s-23.2,4-29.7,7.2c-5.5,2.7-9.4,4.6-18.4,4.6s-.2,0-.3,0v23c0,0,.2,0,.3,0,15,0,23.2-4,29.7-7.2,5.5-2.7,9.4-4.6,18.4-4.6s13,1.9,18.5,4.6c6.5,3.2,14.7,7.2,29.7,7.2v-23Z"/>
  <path class="st0" d="M732.1,858c-9,0-13-1.9-18.4-4.6-6.6-3.2-14.7-7.2-29.8-7.2s-23.2,4-29.7,7.2c-5.5,2.7-9.4,4.6-18.4,4.6s-.2,0-.3,0v23c0,0,.2,0,.3,0,15,0,23.2-4,29.7-7.2,5.5-2.7,9.4-4.6,18.4-4.6s13,1.9,18.5,4.6c6.5,3.2,14.7,7.2,29.7,7.2v-23Z"/>
  <path class="st0" d="M855.5,858c-9,0-13-1.9-18.4-4.6-6.6-3.2-14.7-7.2-29.8-7.2s-23.2,4-29.7,7.2c-5.5,2.7-9.4,4.6-18.4,4.6s-.2,0-.3,0v23c0,0,.2,0,.3,0,15,0,23.2-4,29.7-7.2,5.5-2.7,9.4-4.6,18.4-4.6s13,1.9,18.5,4.6c6.5,3.2,14.7,7.2,29.7,7.2v-23Z"/>
  <path class="st0" d="M978.9,858c-9,0-13-1.9-18.4-4.6-6.6-3.2-14.7-7.2-29.8-7.2s-23.2,4-29.7,7.2c-5.5,2.7-9.4,4.6-18.4,4.6s-.2,0-.3,0v23c0,0,.2,0,.3,0,15,0,23.2-4,29.7-7.2,5.5-2.7,9.4-4.6,18.4-4.6s13,1.9,18.5,4.6c6.5,3.2,14.7,7.2,29.7,7.2v-23Z"/>
  <path class="st0" d="M1102.2,858c-9,0-13-1.9-18.4-4.6-6.6-3.2-14.7-7.2-29.8-7.2s-23.2,4-29.7,7.2c-5.5,2.7-9.4,4.6-18.4,4.6s-.2,0-.3,0v23c0,0,.2,0,.3,0,15,0,23.2-4,29.7-7.2,5.5-2.7,9.4-4.6,18.4-4.6s13,1.9,18.5,4.6c6.5,3.2,14.7,7.2,29.7,7.2v-23Z"/>
  <path class="st0" d="M1225.6,858c-9,0-13-1.9-18.4-4.6-6.6-3.2-14.7-7.2-29.8-7.2s-23.2,4-29.7,7.2c-5.5,2.7-9.4,4.6-18.4,4.6s-.2,0-.3,0v23c0,0,.2,0,.3,0,15,0,23.2-4,29.7-7.2,5.5-2.7,9.4-4.6,18.4-4.6s13,1.9,18.5,4.6c6.5,3.2,14.7,7.2,29.7,7.2v-23Z"/>
  <path class="st0" d="M1349,858c-9,0-13-1.9-18.4-4.6-6.6-3.2-14.7-7.2-29.8-7.2s-23.2,4-29.7,7.2c-5.5,2.7-9.4,4.6-18.4,4.6s-.2,0-.3,0v23c0,0,.2,0,.3,0,15,0,23.2-4,29.7-7.2,5.5-2.7,9.4-4.6,18.4-4.6s13,1.9,18.5,4.6c6.5,3.2,14.7,7.2,29.7,7.2v-23Z"/>
  <path class="st0" d="M1472.4,858c-9,0-13-1.9-18.4-4.6-6.6-3.2-14.7-7.2-29.8-7.2s-23.2,4-29.7,7.2c-5.5,2.7-9.4,4.6-18.4,4.6s-.2,0-.3,0v23c0,0,.2,0,.3,0,15,0,23.2-4,29.7-7.2,5.5-2.7,9.4-4.6,18.4-4.6s13,1.9,18.5,4.6c6.5,3.2,14.7,7.2,29.7,7.2v-23Z"/>
  <path class="st0" d="M670.4,794.4c-9,0-13-1.9-18.4-4.6-6.6-3.2-14.7-7.2-29.8-7.2s-23.2,4-29.7,7.2c-5.5,2.7-9.4,4.6-18.4,4.6s-.2,0-.3,0v23c0,0,.2,0,.3,0,15,0,23.2-4,29.7-7.2,5.5-2.7,9.4-4.6,18.4-4.6s13,1.9,18.5,4.6c6.5,3.2,14.7,7.2,29.7,7.2v-23Z"/>
  <path class="st0" d="M793.8,794.4c-9,0-13-1.9-18.4-4.6-6.6-3.2-14.7-7.2-29.8-7.2s-23.2,4-29.7,7.2c-5.5,2.7-9.4,4.6-18.4,4.6s-.2,0-.3,0v23c0,0,.2,0,.3,0,15,0,23.2-4,29.7-7.2,5.5-2.7,9.4-4.6,18.4-4.6s13,1.9,18.5,4.6c6.5,3.2,14.7,7.2,29.7,7.2v-23Z"/>
  <path class="st0" d="M917.2,794.4c-9,0-13-1.9-18.4-4.6-6.6-3.2-14.7-7.2-29.8-7.2s-23.2,4-29.7,7.2c-5.5,2.7-9.4,4.6-18.4,4.6s-.2,0-.3,0v23c0,0,.2,0,.3,0,15,0,23.2-4,29.7-7.2,5.5-2.7,9.4-4.6,18.4-4.6s13,1.9,18.5,4.6c6.5,3.2,14.7,7.2,29.7,7.2v-23Z"/>
  <path class="st0" d="M1040.6,794.4c-9,0-13-1.9-18.4-4.6-6.6-3.2-14.7-7.2-29.8-7.2s-23.2,4-29.7,7.2c-5.5,2.7-9.4,4.6-18.4,4.6s-.2,0-.3,0v23c0,0,.2,0,.3,0,15,0,23.2-4,29.7-7.2,5.5-2.7,9.4-4.6,18.4-4.6s13,1.9,18.5,4.6c6.5,3.2,14.7,7.2,29.7,7.2v-23Z"/>
  <path class="st0" d="M1163.9,794.4c-9,0-13-1.9-18.4-4.6-6.6-3.2-14.7-7.2-29.8-7.2s-23.2,4-29.7,7.2c-5.5,2.7-9.4,4.6-18.4,4.6s-.2,0-.3,0v23c0,0,.2,0,.3,0,15,0,23.2-4,29.7-7.2,5.5-2.7,9.4-4.6,18.4-4.6s13,1.9,18.5,4.6c6.5,3.2,14.7,7.2,29.7,7.2v-23Z"/>
  <path class="st0" d="M1287.3,794.4c-9,0-13-1.9-18.4-4.6-6.6-3.2-14.7-7.2-29.8-7.2s-23.2,4-29.7,7.2c-5.5,2.7-9.4,4.6-18.4,4.6s-.2,0-.3,0v23c0,0,.2,0,.3,0,15,0,23.2-4,29.7-7.2,5.5-2.7,9.4-4.6,18.4-4.6s13,1.9,18.5,4.6c6.5,3.2,14.7,7.2,29.7,7.2v-23Z"/>
  <path class="st0" d="M1410.7,794.4c-9,0-13-1.9-18.4-4.6-6.6-3.2-14.7-7.2-29.8-7.2s-23.2,4-29.7,7.2c-5.5,2.7-9.4,4.6-18.4,4.6s-.2,0-.3,0v23c0,0,.2,0,.3,0,15,0,23.2-4,29.7-7.2,5.5-2.7,9.4-4.6,18.4-4.6s13,1.9,18.5,4.6c6.5,3.2,14.7,7.2,29.7,7.2v-23Z"/>
  <path class="st0" d="M1534,794.4c-9,0-13-1.9-18.4-4.6-6.6-3.2-14.7-7.2-29.8-7.2s-23.2,4-29.7,7.2c-5.5,2.7-9.4,4.6-18.4,4.6s-.2,0-.3,0v23c0,0,.2,0,.3,0,15,0,23.2-4,29.7-7.2,5.5-2.7,9.4-4.6,18.4-4.6s13,1.9,18.5,4.6c6.5,3.2,14.7,7.2,29.7,7.2v-23Z"/>
  <path class="st0" d="M608.7,730.8c-9,0-13-1.9-18.4-4.6-6.6-3.2-14.7-7.2-29.8-7.2s-23.2,4-29.7,7.2c-5.5,2.7-9.4,4.6-18.4,4.6s-.2,0-.3,0v23c0,0,.2,0,.3,0,15,0,23.2-4,29.7-7.2,5.5-2.7,9.4-4.6,18.4-4.6s13,1.9,18.5,4.6c6.5,3.2,14.7,7.2,29.7,7.2v-23Z"/>
  <path class="st0" d="M855.5,730.8c-9,0-13-1.9-18.4-4.6-6.6-3.2-14.7-7.2-29.8-7.2s-23.2,4-29.7,7.2c-5.5,2.7-9.4,4.6-18.4,4.6s-.2,0-.3,0v23c0,0,.2,0,.3,0,15,0,23.2-4,29.7-7.2,5.5-2.7,9.4-4.6,18.4-4.6s13,1.9,18.5,4.6c6.5,3.2,14.7,7.2,29.7,7.2v-23Z"/>
  <path class="st0" d="M978.9,730.8c-9,0-13-1.9-18.4-4.6-6.6-3.2-14.7-7.2-29.8-7.2s-23.2,4-29.7,7.2c-5.5,2.7-9.4,4.6-18.4,4.6s-.2,0-.3,0v23c0,0,.2,0,.3,0,15,0,23.2-4,29.7-7.2,5.5-2.7,9.4-4.6,18.4-4.6s13,1.9,18.5,4.6c6.5,3.2,14.7,7.2,29.7,7.2v-23Z"/>
  <path class="st0" d="M1102.2,730.8c-9,0-13-1.9-18.4-4.6-6.6-3.2-14.7-7.2-29.8-7.2s-23.2,4-29.7,7.2c-5.5,2.7-9.4,4.6-18.4,4.6s-.2,0-.3,0v23c0,0,.2,0,.3,0,15,0,23.2-4,29.7-7.2,5.5-2.7,9.4-4.6,18.4-4.6s13,1.9,18.5,4.6c6.5,3.2,14.7,7.2,29.7,7.2v-23Z"/>
  <path class="st0" d="M1225.6,730.8c-9,0-13-1.9-18.4-4.6-6.6-3.2-14.7-7.2-29.8-7.2s-23.2,4-29.7,7.2c-5.5,2.7-9.4,4.6-18.4,4.6s-.2,0-.3,0v23c0,0,.2,0,.3,0,15,0,23.2-4,29.7-7.2,5.5-2.7,9.4-4.6,18.4-4.6s13,1.9,18.5,4.6c6.5,3.2,14.7,7.2,29.7,7.2v-23Z"/>
  <path class="st0" d="M1349,730.8c-9,0-13-1.9-18.4-4.6-6.6-3.2-14.7-7.2-29.8-7.2s-23.2,4-29.7,7.2c-5.5,2.7-9.4,4.6-18.4,4.6s-.2,0-.3,0v23c0,0,.2,0,.3,0,15,0,23.2-4,29.7-7.2,5.5-2.7,9.4-4.6,18.4-4.6s13,1.9,18.5,4.6c6.5,3.2,14.7,7.2,29.7,7.2v-23Z"/>
  <path class="st0" d="M1472.4,730.8c-9,0-13-1.9-18.4-4.6-6.6-3.2-14.7-7.2-29.8-7.2s-23.2,4-29.7,7.2c-5.5,2.7-9.4,4.6-18.4,4.6s-.2,0-.3,0v23c0,0,.2,0,.3,0,15,0,23.2-4,29.7-7.2,5.5-2.7,9.4-4.6,18.4-4.6s13,1.9,18.5,4.6c6.5,3.2,14.7,7.2,29.7,7.2v-23Z"/>
  <path class="st0" d="M670.4,667.2c-9,0-13-1.9-18.4-4.6-6.6-3.2-14.7-7.2-29.8-7.2s-23.2,4-29.7,7.2c-5.5,2.7-9.4,4.6-18.4,4.6s-.2,0-.3,0v23c0,0,.2,0,.3,0,15,0,23.2-4,29.7-7.2,5.5-2.7,9.4-4.6,18.4-4.6s13,1.9,18.5,4.6c6.5,3.2,14.7,7.2,29.7,7.2v-23Z"/>
  <path class="st0" d="M917.2,667.2c-9,0-13-1.9-18.4-4.6-6.6-3.2-14.7-7.2-29.8-7.2s-23.2,4-29.7,7.2c-5.5,2.7-9.4,4.6-18.4,4.6s-.2,0-.3,0v23c0,0,.2,0,.3,0,15,0,23.2-4,29.7-7.2,5.5-2.7,9.4-4.6,18.4-4.6s13,1.9,18.5,4.6c6.5,3.2,14.7,7.2,29.7,7.2v-23Z"/>
  <path class="st0" d="M1040.6,667.2c-9,0-13-1.9-18.4-4.6-6.6-3.2-14.7-7.2-29.8-7.2s-23.2,4-29.7,7.2c-5.5,2.7-9.4,4.6-18.4,4.6s-.2,0-.3,0v23c0,0,.2,0,.3,0,15,0,23.2-4,29.7-7.2,5.5-2.7,9.4-4.6,18.4-4.6s13,1.9,18.5,4.6c6.5,3.2,14.7,7.2,29.7,7.2v-23Z"/>
  <path class="st0" d="M1163.9,667.2c-9,0-13-1.9-18.4-4.6-6.6-3.2-14.7-7.2-29.8-7.2s-23.2,4-29.7,7.2c-5.5,2.7-9.4,4.6-18.4,4.6s-.2,0-.3,0v23c0,0,.2,0,.3,0,15,0,23.2-4,29.7-7.2,5.5-2.7,9.4-4.6,18.4-4.6s13,1.9,18.5,4.6c6.5,3.2,14.7,7.2,29.7,7.2v-23Z"/>
  <path class="st0" d="M1287.3,667.2c-9,0-13-1.9-18.4-4.6-6.6-3.2-14.7-7.2-29.8-7.2s-23.2,4-29.7,7.2c-5.5,2.7-9.4,4.6-18.4,4.6s-.2,0-.3,0v23c0,0,.2,0,.3,0,15,0,23.2-4,29.7-7.2,5.5-2.7,9.4-4.6,18.4-4.6s13,1.9,18.5,4.6c6.5,3.2,14.7,7.2,29.7,7.2v-23Z"/>
  <path class="st0" d="M1410.7,667.2c-9,0-13-1.9-18.4-4.6-6.6-3.2-14.7-7.2-29.8-7.2s-23.2,4-29.7,7.2c-5.5,2.7-9.4,4.6-18.4,4.6s-.2,0-.3,0v23c0,0,.2,0,.3,0,15,0,23.2-4,29.7-7.2,5.5-2.7,9.4-4.6,18.4-4.6s13,1.9,18.5,4.6c6.5,3.2,14.7,7.2,29.7,7.2v-23Z"/>
  <path class="st0" d="M1534,667.2c-9,0-13-1.9-18.4-4.6-6.6-3.2-14.7-7.2-29.8-7.2s-23.2,4-29.7,7.2c-5.5,2.7-9.4,4.6-18.4,4.6s-.2,0-.3,0v23c0,0,.2,0,.3,0,15,0,23.2-4,29.7-7.2,5.5-2.7,9.4-4.6,18.4-4.6s13,1.9,18.5,4.6c6.5,3.2,14.7,7.2,29.7,7.2v-23Z"/>
  <path class="st0" d="M507.1,603.6c-9,0-13-1.9-18.4-4.6-6.6-3.2-14.7-7.2-29.8-7.2s-23.2,4-29.7,7.2c-5.5,2.7-9.4,4.6-18.4,4.6s-.2,0-.3,0v23c0,0,.2,0,.3,0,15,0,23.2-4,29.7-7.2,5.5-2.7,9.4-4.6,18.4-4.6s13,1.9,18.5,4.6c6.5,3.2,14.7,7.2,29.7,7.2v-23Z"/>
  <path class="st0" d="M732.1,603.6c-9,0-13-1.9-18.4-4.6-6.6-3.2-14.7-7.2-29.8-7.2s-23.2,4-29.7,7.2c-5.5,2.7-9.4,4.6-18.4,4.6s-.2,0-.3,0v23c0,0,.2,0,.3,0,15,0,23.2-4,29.7-7.2,5.5-2.7,9.4-4.6,18.4-4.6s13,1.9,18.5,4.6c6.5,3.2,14.7,7.2,29.7,7.2v-23Z"/>
  <path class="st0" d="M855.5,603.6c-9,0-13-1.9-18.4-4.6-6.6-3.2-14.7-7.2-29.8-7.2s-23.2,4-29.7,7.2c-5.5,2.7-9.4,4.6-18.4,4.6s-.2,0-.3,0v23c0,0,.2,0,.3,0,15,0,23.2-4,29.7-7.2,5.5-2.7,9.4-4.6,18.4-4.6s13,1.9,18.5,4.6c6.5,3.2,14.7,7.2,29.7,7.2v-23Z"/>
  <path class="st0" d="M978.9,603.6c-9,0-13-1.9-18.4-4.6-6.6-3.2-14.7-7.2-29.8-7.2s-23.2,4-29.7,7.2c-5.5,2.7-9.4,4.6-18.4,4.6s-.2,0-.3,0v23c0,0,.2,0,.3,0,15,0,23.2-4,29.7-7.2,5.5-2.7,9.4-4.6,18.4-4.6s13,1.9,18.5,4.6c6.5,3.2,14.7,7.2,29.7,7.2v-23Z"/>
  <path class="st0" d="M1102.2,603.6c-9,0-13-1.9-18.4-4.6-6.6-3.2-14.7-7.2-29.8-7.2s-23.2,4-29.7,7.2c-5.5,2.7-9.4,4.6-18.4,4.6s-.2,0-.3,0v23c0,0,.2,0,.3,0,15,0,23.2-4,29.7-7.2,5.5-2.7,9.4-4.6,18.4-4.6s13,1.9,18.5,4.6c6.5,3.2,14.7,7.2,29.7,7.2v-23Z"/>
  <path class="st0" d="M1225.6,603.6c-9,0-13-1.9-18.4-4.6-6.6-3.2-14.7-7.2-29.8-7.2s-23.2,4-29.7,7.2c-5.5,2.7-9.4,4.6-18.4,4.6s-.2,0-.3,0v23c0,0,.2,0,.3,0,15,0,23.2-4,29.7-7.2,5.5-2.7,9.4-4.6,18.4-4.6s13,1.9,18.5,4.6c6.5,3.2,14.7,7.2,29.7,7.2v-23Z"/>
  <path class="st0" d="M1349,603.6c-9,0-13-1.9-18.4-4.6-6.6-3.2-14.7-7.2-29.8-7.2s-23.2,4-29.7,7.2c-5.5,2.7-9.4,4.6-18.4,4.6s-.2,0-.3,0v23c0,0,.2,0,.3,0,15,0,23.2-4,29.7-7.2,5.5-2.7,9.4-4.6,18.4-4.6s13,1.9,18.5,4.6c6.5,3.2,14.7,7.2,29.7,7.2v-23Z"/>
  <path class="st0" d="M1472.4,603.6c-9,0-13-1.9-18.4-4.6-6.6-3.2-14.7-7.2-29.8-7.2s-23.2,4-29.7,7.2c-5.5,2.7-9.4,4.6-18.4,4.6s-.2,0-.3,0v23c0,0,.2,0,.3,0,15,0,23.2-4,29.7-7.2,5.5-2.7,9.4-4.6,18.4-4.6s13,1.9,18.5,4.6c6.5,3.2,14.7,7.2,29.7,7.2v-23Z"/>
  <path class="st0" d="M670.4,540c-9,0-13-1.9-18.4-4.6-6.6-3.2-14.7-7.2-29.8-7.2s-23.2,4-29.7,7.2c-5.5,2.7-9.4,4.6-18.4,4.6s-.2,0-.3,0v23c0,0,.2,0,.3,0,15,0,23.2-4,29.7-7.2,5.5-2.7,9.4-4.6,18.4-4.6s13,1.9,18.5,4.6c6.5,3.2,14.7,7.2,29.7,7.2v-23Z"/>
  <path class="st0" d="M793.8,540c-9,0-13-1.9-18.4-4.6-6.6-3.2-14.7-7.2-29.8-7.2s-23.2,4-29.7,7.2c-5.5,2.7-9.4,4.6-18.4,4.6s-.2,0-.3,0v23c0,0,.2,0,.3,0,15,0,23.2-4,29.7-7.2,5.5-2.7,9.4-4.6,18.4-4.6s13,1.9,18.5,4.6c6.5,3.2,14.7,7.2,29.7,7.2v-23Z"/>
  <path class="st0" d="M917.2,540c-9,0-13-1.9-18.4-4.6-6.6-3.2-14.7-7.2-29.8-7.2s-23.2,4-29.7,7.2c-5.5,2.7-9.4,4.6-18.4,4.6s-.2,0-.3,0v23c0,0,.2,0,.3,0,15,0,23.2-4,29.7-7.2,5.5-2.7,9.4-4.6,18.4-4.6s13,1.9,18.5,4.6c6.5,3.2,14.7,7.2,29.7,7.2v-23Z"/>
  <path class="st0" d="M1040.6,540c-9,0-13-1.9-18.4-4.6-6.6-3.2-14.7-7.2-29.8-7.2s-23.2,4-29.7,7.2c-5.5,2.7-9.4,4.6-18.4,4.6s-.2,0-.3,0v23c0,0,.2,0,.3,0,15,0,23.2-4,29.7-7.2,5.5-2.7,9.4-4.6,18.4-4.6s13,1.9,18.5,4.6c6.5,3.2,14.7,7.2,29.7,7.2v-23Z"/>
  <path class="st0" d="M1163.9,540c-9,0-13-1.9-18.4-4.6-6.6-3.2-14.7-7.2-29.8-7.2s-23.2,4-29.7,7.2c-5.5,2.7-9.4,4.6-18.4,4.6s-.2,0-.3,0v23c0,0,.2,0,.3,0,15,0,23.2-4,29.7-7.2,5.5-2.7,9.4-4.6,18.4-4.6s13,1.9,18.5,4.6c6.5,3.2,14.7,7.2,29.7,7.2v-23Z"/>
  <path class="st0" d="M1287.3,540c-9,0-13-1.9-18.4-4.6-6.6-3.2-14.7-7.2-29.8-7.2s-23.2,4-29.7,7.2c-5.5,2.7-9.4,4.6-18.4,4.6s-.2,0-.3,0v23c0,0,.2,0,.3,0,15,0,23.2-4,29.7-7.2,5.5-2.7,9.4-4.6,18.4-4.6s13,1.9,18.5,4.6c6.5,3.2,14.7,7.2,29.7,7.2v-23Z"/>
  <path class="st0" d="M1410.7,540c-9,0-13-1.9-18.4-4.6-6.6-3.2-14.7-7.2-29.8-7.2s-23.2,4-29.7,7.2c-5.5,2.7-9.4,4.6-18.4,4.6s-.2,0-.3,0v23c0,0,.2,0,.3,0,15,0,23.2-4,29.7-7.2,5.5-2.7,9.4-4.6,18.4-4.6s13,1.9,18.5,4.6c6.5,3.2,14.7,7.2,29.7,7.2v-23Z"/>
  <path class="st0" d="M1534,540c-9,0-13-1.9-18.4-4.6-6.6-3.2-14.7-7.2-29.8-7.2s-23.2,4-29.7,7.2c-5.5,2.7-9.4,4.6-18.4,4.6s-.2,0-.3,0v23c0,0,.2,0,.3,0,15,0,23.2-4,29.7-7.2,5.5-2.7,9.4-4.6,18.4-4.6s13,1.9,18.5,4.6c6.5,3.2,14.7,7.2,29.7,7.2v-23Z"/>
  <path class="st0" d="M608.7,476.4c-9,0-13-1.9-18.4-4.6-6.6-3.2-14.7-7.2-29.8-7.2s-23.2,4-29.7,7.2c-5.5,2.7-9.4,4.6-18.4,4.6s-.2,0-.3,0v23c0,0,.2,0,.3,0,15,0,23.2-4,29.7-7.2,5.5-2.7,9.4-4.6,18.4-4.6s13,1.9,18.5,4.6c6.5,3.2,14.7,7.2,29.7,7.2v-23Z"/>
  <path class="st0" d="M855.5,476.4c-9,0-13-1.9-18.4-4.6-6.6-3.2-14.7-7.2-29.8-7.2s-23.2,4-29.7,7.2c-5.5,2.7-9.4,4.6-18.4,4.6s-.2,0-.3,0v23c0,0,.2,0,.3,0,15,0,23.2-4,29.7-7.2,5.5-2.7,9.4-4.6,18.4-4.6s13,1.9,18.5,4.6c6.5,3.2,14.7,7.2,29.7,7.2v-23Z"/>
  <path class="st0" d="M978.9,476.4c-9,0-13-1.9-18.4-4.6-6.6-3.2-14.7-7.2-29.8-7.2s-23.2,4-29.7,7.2c-5.5,2.7-9.4,4.6-18.4,4.6s-.2,0-.3,0v23c0,0,.2,0,.3,0,15,0,23.2-4,29.7-7.2,5.5-2.7,9.4-4.6,18.4-4.6s13,1.9,18.5,4.6c6.5,3.2,14.7,7.2,29.7,7.2v-23Z"/>
  <path class="st0" d="M1102.2,476.4c-9,0-13-1.9-18.4-4.6-6.6-3.2-14.7-7.2-29.8-7.2s-23.2,4-29.7,7.2c-5.5,2.7-9.4,4.6-18.4,4.6s-.2,0-.3,0v23c0,0,.2,0,.3,0,15,0,23.2-4,29.7-7.2,5.5-2.7,9.4-4.6,18.4-4.6s13,1.9,18.5,4.6c6.5,3.2,14.7,7.2,29.7,7.2v-23Z"/>
  <path class="st0" d="M1225.6,476.4c-9,0-13-1.9-18.4-4.6-6.6-3.2-14.7-7.2-29.8-7.2s-23.2,4-29.7,7.2c-5.5,2.7-9.4,4.6-18.4,4.6s-.2,0-.3,0v23c0,0,.2,0,.3,0,15,0,23.2-4,29.7-7.2,5.5-2.7,9.4-4.6,18.4-4.6s13,1.9,18.5,4.6c6.5,3.2,14.7,7.2,29.7,7.2v-23Z"/>
  <path class="st0" d="M1349,476.4c-9,0-13-1.9-18.4-4.6-6.6-3.2-14.7-7.2-29.8-7.2s-23.2,4-29.7,7.2c-5.5,2.7-9.4,4.6-18.4,4.6s-.2,0-.3,0v23c0,0,.2,0,.3,0,15,0,23.2-4,29.7-7.2,5.5-2.7,9.4-4.6,18.4-4.6s13,1.9,18.5,4.6c6.5,3.2,14.7,7.2,29.7,7.2v-23Z"/>
  <path class="st0" d="M1472.4,476.4c-9,0-13-1.9-18.4-4.6-6.6-3.2-14.7-7.2-29.8-7.2s-23.2,4-29.7,7.2c-5.5,2.7-9.4,4.6-18.4,4.6s-.2,0-.3,0v23c0,0,.2,0,.3,0,15,0,23.2-4,29.7-7.2,5.5-2.7,9.4-4.6,18.4-4.6s13,1.9,18.5,4.6c6.5,3.2,14.7,7.2,29.7,7.2v-23Z"/>
  <path class="st0" d="M793.8,412.8c-9,0-13-1.9-18.4-4.6-6.6-3.2-14.7-7.2-29.8-7.2s-23.2,4-29.7,7.2c-5.5,2.7-9.4,4.6-18.4,4.6s-.2,0-.3,0v23c0,0,.2,0,.3,0,15,0,23.2-4,29.7-7.2,5.5-2.7,9.4-4.6,18.4-4.6s13,1.9,18.5,4.6c6.5,3.2,14.7,7.2,29.7,7.2v-23Z"/>
  <path class="st0" d="M917.2,412.8c-9,0-13-1.9-18.4-4.6-6.6-3.2-14.7-7.2-29.8-7.2s-23.2,4-29.7,7.2c-5.5,2.7-9.4,4.6-18.4,4.6s-.2,0-.3,0v23c0,0,.2,0,.3,0,15,0,23.2-4,29.7-7.2,5.5-2.7,9.4-4.6,18.4-4.6s13,1.9,18.5,4.6c6.5,3.2,14.7,7.2,29.7,7.2v-23Z"/>
  <path class="st0" d="M1040.6,412.8c-9,0-13-1.9-18.4-4.6-6.6-3.2-14.7-7.2-29.8-7.2s-23.2,4-29.7,7.2c-5.5,2.7-9.4,4.6-18.4,4.6s-.2,0-.3,0v23c0,0,.2,0,.3,0,15,0,23.2-4,29.7-7.2,5.5-2.7,9.4-4.6,18.4-4.6s13,1.9,18.5,4.6c6.5,3.2,14.7,7.2,29.7,7.2v-23Z"/>
  <path class="st0" d="M1163.9,412.8c-9,0-13-1.9-18.4-4.6-6.6-3.2-14.7-7.2-29.8-7.2s-23.2,4-29.7,7.2c-5.5,2.7-9.4,4.6-18.4,4.6s-.2,0-.3,0v23c0,0,.2,0,.3,0,15,0,23.2-4,29.7-7.2,5.5-2.7,9.4-4.6,18.4-4.6s13,1.9,18.5,4.6c6.5,3.2,14.7,7.2,29.7,7.2v-23Z"/>
  <path class="st0" d="M1287.3,412.8c-9,0-13-1.9-18.4-4.6-6.6-3.2-14.7-7.2-29.8-7.2s-23.2,4-29.7,7.2c-5.5,2.7-9.4,4.6-18.4,4.6s-.2,0-.3,0v23c0,0,.2,0,.3,0,15,0,23.2-4,29.7-7.2,5.5-2.7,9.4-4.6,18.4-4.6s13,1.9,18.5,4.6c6.5,3.2,14.7,7.2,29.7,7.2v-23Z"/>
  <path class="st0" d="M1410.7,412.8c-9,0-13-1.9-18.4-4.6-6.6-3.2-14.7-7.2-29.8-7.2s-23.2,4-29.7,7.2c-5.5,2.7-9.4,4.6-18.4,4.6s-.2,0-.3,0v23c0,0,.2,0,.3,0,15,0,23.2-4,29.7-7.2,5.5-2.7,9.4-4.6,18.4-4.6s13,1.9,18.5,4.6c6.5,3.2,14.7,7.2,29.7,7.2v-23Z"/>
  <path class="st0" d="M1534,412.8c-9,0-13-1.9-18.4-4.6-6.6-3.2-14.7-7.2-29.8-7.2s-23.2,4-29.7,7.2c-5.5,2.7-9.4,4.6-18.4,4.6s-.2,0-.3,0v23c0,0,.2,0,.3,0,15,0,23.2-4,29.7-7.2,5.5-2.7,9.4-4.6,18.4-4.6s13,1.9,18.5,4.6c6.5,3.2,14.7,7.2,29.7,7.2v-23Z"/>
  <path class="st0" d="M410.5,349.2c-9,0-13-1.9-18.4-4.6-6.6-3.2-14.7-7.2-29.8-7.2s-23.2,4-29.7,7.2c-5.5,2.7-9.4,4.6-18.4,4.6s-.2,0-.3,0v23c0,0,.2,0,.3,0,15,0,23.2-4,29.7-7.2,5.5-2.7,9.4-4.6,18.4-4.6s13,1.9,18.5,4.6c6.5,3.2,14.7,7.2,29.7,7.2v-23Z"/>
  <path class="st0" d="M732.1,349.2c-9,0-13-1.9-18.4-4.6-6.6-3.2-14.7-7.2-29.8-7.2s-23.2,4-29.7,7.2c-5.5,2.7-9.4,4.6-18.4,4.6s-.2,0-.3,0v23c0,0,.2,0,.3,0,15,0,23.2-4,29.7-7.2,5.5-2.7,9.4-4.6,18.4-4.6s13,1.9,18.5,4.6c6.5,3.2,14.7,7.2,29.7,7.2v-23Z"/>
  <path class="st0" d="M855.5,349.2c-9,0-13-1.9-18.4-4.6-6.6-3.2-14.7-7.2-29.8-7.2s-23.2,4-29.7,7.2c-5.5,2.7-9.4,4.6-18.4,4.6s-.2,0-.3,0v23c0,0,.2,0,.3,0,15,0,23.2-4,29.7-7.2,5.5-2.7,9.4-4.6,18.4-4.6s13,1.9,18.5,4.6c6.5,3.2,14.7,7.2,29.7,7.2v-23Z"/>
  <path class="st0" d="M1102.2,349.2c-9,0-13-1.9-18.4-4.6-6.6-3.2-14.7-7.2-29.8-7.2s-23.2,4-29.7,7.2c-5.5,2.7-9.4,4.6-18.4,4.6s-.2,0-.3,0v23c0,0,.2,0,.3,0,15,0,23.2-4,29.7-7.2,5.5-2.7,9.4-4.6,18.4-4.6s13,1.9,18.5,4.6c6.5,3.2,14.7,7.2,29.7,7.2v-23Z"/>
  <path class="st0" d="M1225.6,349.2c-9,0-13-1.9-18.4-4.6-6.6-3.2-14.7-7.2-29.8-7.2s-23.2,4-29.7,7.2c-5.5,2.7-9.4,4.6-18.4,4.6s-.2,0-.3,0v23c0,0,.2,0,.3,0,15,0,23.2-4,29.7-7.2,5.5-2.7,9.4-4.6,18.4-4.6s13,1.9,18.5,4.6c6.5,3.2,14.7,7.2,29.7,7.2v-23Z"/>
  <path class="st0" d="M1349,349.2c-9,0-13-1.9-18.4-4.6-6.6-3.2-14.7-7.2-29.8-7.2s-23.2,4-29.7,7.2c-5.5,2.7-9.4,4.6-18.4,4.6s-.2,0-.3,0v23c0,0,.2,0,.3,0,15,0,23.2-4,29.7-7.2,5.5-2.7,9.4-4.6,18.4-4.6s13,1.9,18.5,4.6c6.5,3.2,14.7,7.2,29.7,7.2v-23Z"/>
  <path class="st0" d="M1472.4,349.2c-9,0-13-1.9-18.4-4.6-6.6-3.2-14.7-7.2-29.8-7.2s-23.2,4-29.7,7.2c-5.5,2.7-9.4,4.6-18.4,4.6s-.2,0-.3,0v23c0,0,.2,0,.3,0,15,0,23.2-4,29.7-7.2,5.5-2.7,9.4-4.6,18.4-4.6s13,1.9,18.5,4.6c6.5,3.2,14.7,7.2,29.7,7.2v-23Z"/>
  <path class="st0" d="M670.4,285.6c-9,0-13-1.9-18.4-4.6-6.6-3.2-14.7-7.2-29.8-7.2s-23.2,4-29.7,7.2c-5.5,2.7-9.4,4.6-18.4,4.6s-.2,0-.3,0v23c0,0,.2,0,.3,0,15,0,23.2-4,29.7-7.2,5.5-2.7,9.4-4.6,18.4-4.6s13,1.9,18.5,4.6c6.5,3.2,14.7,7.2,29.7,7.2v-23Z"/>
  <path class="st0" d="M793.8,285.6c-9,0-13-1.9-18.4-4.6-6.6-3.2-14.7-7.2-29.8-7.2s-23.2,4-29.7,7.2c-5.5,2.7-9.4,4.6-18.4,4.6s-.2,0-.3,0v23c0,0,.2,0,.3,0,15,0,23.2-4,29.7-7.2,5.5-2.7,9.4-4.6,18.4-4.6s13,1.9,18.5,4.6c6.5,3.2,14.7,7.2,29.7,7.2v-23Z"/>
  <path class="st0" d="M917.2,285.6c-9,0-13-1.9-18.4-4.6-6.6-3.2-14.7-7.2-29.8-7.2s-23.2,4-29.7,7.2c-5.5,2.7-9.4,4.6-18.4,4.6s-.2,0-.3,0v23c0,0,.2,0,.3,0,15,0,23.2-4,29.7-7.2,5.5-2.7,9.4-4.6,18.4-4.6s13,1.9,18.5,4.6c6.5,3.2,14.7,7.2,29.7,7.2v-23Z"/>
  <path class="st0" d="M1040.6,285.6c-9,0-13-1.9-18.4-4.6-6.6-3.2-14.7-7.2-29.8-7.2s-23.2,4-29.7,7.2c-5.5,2.7-9.4,4.6-18.4,4.6s-.2,0-.3,0v23c0,0,.2,0,.3,0,15,0,23.2-4,29.7-7.2,5.5-2.7,9.4-4.6,18.4-4.6s13,1.9,18.5,4.6c6.5,3.2,14.7,7.2,29.7,7.2v-23Z"/>
  <path class="st0" d="M1163.9,285.6c-9,0-13-1.9-18.4-4.6-6.6-3.2-14.7-7.2-29.8-7.2s-23.2,4-29.7,7.2c-5.5,2.7-9.4,4.6-18.4,4.6s-.2,0-.3,0v23c0,0,.2,0,.3,0,15,0,23.2-4,29.7-7.2,5.5-2.7,9.4-4.6,18.4-4.6s13,1.9,18.5,4.6c6.5,3.2,14.7,7.2,29.7,7.2v-23Z"/>
  <path class="st0" d="M1287.3,285.6c-9,0-13-1.9-18.4-4.6-6.6-3.2-14.7-7.2-29.8-7.2s-23.2,4-29.7,7.2c-5.5,2.7-9.4,4.6-18.4,4.6s-.2,0-.3,0v23c0,0,.2,0,.3,0,15,0,23.2-4,29.7-7.2,5.5-2.7,9.4-4.6,18.4-4.6s13,1.9,18.5,4.6c6.5,3.2,14.7,7.2,29.7,7.2v-23Z"/>
  <path class="st0" d="M1410.7,285.6c-9,0-13-1.9-18.4-4.6-6.6-3.2-14.7-7.2-29.8-7.2s-23.2,4-29.7,7.2c-5.5,2.7-9.4,4.6-18.4,4.6s-.2,0-.3,0v23c0,0,.2,0,.3,0,15,0,23.2-4,29.7-7.2,5.5-2.7,9.4-4.6,18.4-4.6s13,1.9,18.5,4.6c6.5,3.2,14.7,7.2,29.7,7.2v-23Z"/>
  <path class="st0" d="M1534,285.6c-9,0-13-1.9-18.4-4.6-6.6-3.2-14.7-7.2-29.8-7.2s-23.2,4-29.7,7.2c-5.5,2.7-9.4,4.6-18.4,4.6s-.2,0-.3,0v23c0,0,.2,0,.3,0,15,0,23.2-4,29.7-7.2,5.5-2.7,9.4-4.6,18.4-4.6s13,1.9,18.5,4.6c6.5,3.2,14.7,7.2,29.7,7.2v-23Z"/>
  <path class="st0" d="M855.5,222c-9,0-13-1.9-18.4-4.6-6.6-3.2-14.7-7.2-29.8-7.2s-23.2,4-29.7,7.2c-5.5,2.7-9.4,4.6-18.4,4.6s-.2,0-.3,0v23c0,0,.2,0,.3,0,15,0,23.2-4,29.7-7.2,5.5-2.7,9.4-4.6,18.4-4.6s13,1.9,18.5,4.6c6.5,3.2,14.7,7.2,29.7,7.2v-23Z"/>
  <path class="st0" d="M978.9,222c-9,0-13-1.9-18.4-4.6-6.6-3.2-14.7-7.2-29.8-7.2s-23.2,4-29.7,7.2c-5.5,2.7-9.4,4.6-18.4,4.6s-.2,0-.3,0v23c0,0,.2,0,.3,0,15,0,23.2-4,29.7-7.2,5.5-2.7,9.4-4.6,18.4-4.6s13,1.9,18.5,4.6c6.5,3.2,14.7,7.2,29.7,7.2v-23Z"/>
  <path class="st0" d="M1102.2,222c-9,0-13-1.9-18.4-4.6-6.6-3.2-14.7-7.2-29.8-7.2s-23.2,4-29.7,7.2c-5.5,2.7-9.4,4.6-18.4,4.6s-.2,0-.3,0v23c0,0,.2,0,.3,0,15,0,23.2-4,29.7-7.2,5.5-2.7,9.4-4.6,18.4-4.6s13,1.9,18.5,4.6c6.5,3.2,14.7,7.2,29.7,7.2v-23Z"/>
  <path class="st0" d="M1225.6,222c-9,0-13-1.9-18.4-4.6-6.6-3.2-14.7-7.2-29.8-7.2s-23.2,4-29.7,7.2c-5.5,2.7-9.4,4.6-18.4,4.6s-.2,0-.3,0v23c0,0,.2,0,.3,0,15,0,23.2-4,29.7-7.2,5.5-2.7,9.4-4.6,18.4-4.6s13,1.9,18.5,4.6c6.5,3.2,14.7,7.2,29.7,7.2v-23Z"/>
  <path class="st0" d="M1349,222c-9,0-13-1.9-18.4-4.6-6.6-3.2-14.7-7.2-29.8-7.2s-23.2,4-29.7,7.2c-5.5,2.7-9.4,4.6-18.4,4.6s-.2,0-.3,0v23c0,0,.2,0,.3,0,15,0,23.2-4,29.7-7.2,5.5-2.7,9.4-4.6,18.4-4.6s13,1.9,18.5,4.6c6.5,3.2,14.7,7.2,29.7,7.2v-23Z"/>
  <path class="st0" d="M1472.4,222c-9,0-13-1.9-18.4-4.6-6.6-3.2-14.7-7.2-29.8-7.2s-23.2,4-29.7,7.2c-5.5,2.7-9.4,4.6-18.4,4.6s-.2,0-.3,0v23c0,0,.2,0,.3,0,15,0,23.2-4,29.7-7.2,5.5-2.7,9.4-4.6,18.4-4.6s13,1.9,18.5,4.6c6.5,3.2,14.7,7.2,29.7,7.2v-23Z"/>
  <path class="st0" d="M670.4,158.4c-9,0-13-1.9-18.4-4.6-6.6-3.2-14.7-7.2-29.8-7.2s-23.2,4-29.7,7.2c-5.5,2.7-9.4,4.6-18.4,4.6s-.2,0-.3,0v23c0,0,.2,0,.3,0,15,0,23.2-4,29.7-7.2,5.5-2.7,9.4-4.6,18.4-4.6s13,1.9,18.5,4.6c6.5,3.2,14.7,7.2,29.7,7.2v-23Z"/>
  <path class="st0" d="M917.2,158.4c-9,0-13-1.9-18.4-4.6-6.6-3.2-14.7-7.2-29.8-7.2s-23.2,4-29.7,7.2c-5.5,2.7-9.4,4.6-18.4,4.6s-.2,0-.3,0v23c0,0,.2,0,.3,0,15,0,23.2-4,29.7-7.2,5.5-2.7,9.4-4.6,18.4-4.6s13,1.9,18.5,4.6c6.5,3.2,14.7,7.2,29.7,7.2v-23Z"/>
  <path class="st0" d="M1040.6,158.4c-9,0-13-1.9-18.4-4.6-6.6-3.2-14.7-7.2-29.8-7.2s-23.2,4-29.7,7.2c-5.5,2.7-9.4,4.6-18.4,4.6s-.2,0-.3,0v23c0,0,.2,0,.3,0,15,0,23.2-4,29.7-7.2,5.5-2.7,9.4-4.6,18.4-4.6s13,1.9,18.5,4.6c6.5,3.2,14.7,7.2,29.7,7.2v-23Z"/>
  <path class="st0" d="M1163.9,158.4c-9,0-13-1.9-18.4-4.6-6.6-3.2-14.7-7.2-29.8-7.2s-23.2,4-29.7,7.2c-5.5,2.7-9.4,4.6-18.4,4.6s-.2,0-.3,0v23c0,0,.2,0,.3,0,15,0,23.2-4,29.7-7.2,5.5-2.7,9.4-4.6,18.4-4.6s13,1.9,18.5,4.6c6.5,3.2,14.7,7.2,29.7,7.2v-23Z"/>
  <path class="st0" d="M1287.3,158.4c-9,0-13-1.9-18.4-4.6-6.6-3.2-14.7-7.2-29.8-7.2s-23.2,4-29.7,7.2c-5.5,2.7-9.4,4.6-18.4,4.6s-.2,0-.3,0v23c0,0,.2,0,.3,0,15,0,23.2-4,29.7-7.2,5.5-2.7,9.4-4.6,18.4-4.6s13,1.9,18.5,4.6c6.5,3.2,14.7,7.2,29.7,7.2v-23Z"/>
  <path class="st0" d="M1410.7,158.4c-9,0-13-1.9-18.4-4.6-6.6-3.2-14.7-7.2-29.8-7.2s-23.2,4-29.7,7.2c-5.5,2.7-9.4,4.6-18.4,4.6s-.2,0-.3,0v23c0,0,.2,0,.3,0,15,0,23.2-4,29.7-7.2,5.5-2.7,9.4-4.6,18.4-4.6s13,1.9,18.5,4.6c6.5,3.2,14.7,7.2,29.7,7.2v-23Z"/>
  <path class="st0" d="M1534,158.4c-9,0-13-1.9-18.4-4.6-6.6-3.2-14.7-7.2-29.8-7.2s-23.2,4-29.7,7.2c-5.5,2.7-9.4,4.6-18.4,4.6s-.2,0-.3,0v23c0,0,.2,0,.3,0,15,0,23.2-4,29.7-7.2,5.5-2.7,9.4-4.6,18.4-4.6s13,1.9,18.5,4.6c6.5,3.2,14.7,7.2,29.7,7.2v-23Z"/>
  <path class="st0" d="M488.7,94.8c-9,0-13-1.9-18.4-4.6-6.6-3.2-14.7-7.2-29.8-7.2s-23.2,4-29.7,7.2c-5.5,2.7-9.4,4.6-18.4,4.6s-.2,0-.3,0v23c0,0,.2,0,.3,0,15,0,23.2-4,29.7-7.2,5.5-2.7,9.4-4.6,18.4-4.6s13,1.9,18.5,4.6c6.5,3.2,14.7,7.2,29.7,7.2v-23Z"/>
  <path class="st0" d="M732.1,94.8c-9,0-13-1.9-18.4-4.6-6.6-3.2-14.7-7.2-29.8-7.2s-23.2,4-29.7,7.2c-5.5,2.7-9.4,4.6-18.4,4.6s-.2,0-.3,0v23c0,0,.2,0,.3,0,15,0,23.2-4,29.7-7.2,5.5-2.7,9.4-4.6,18.4-4.6s13,1.9,18.5,4.6c6.5,3.2,14.7,7.2,29.7,7.2v-23Z"/>
  <path class="st0" d="M855.5,94.8c-9,0-13-1.9-18.4-4.6-6.6-3.2-14.7-7.2-29.8-7.2s-23.2,4-29.7,7.2c-5.5,2.7-9.4,4.6-18.4,4.6s-.2,0-.3,0v23c0,0,.2,0,.3,0,15,0,23.2-4,29.7-7.2,5.5-2.7,9.4-4.6,18.4-4.6s13,1.9,18.5,4.6c6.5,3.2,14.7,7.2,29.7,7.2v-23Z"/>
  <path class="st0" d="M978.9,94.8c-9,0-13-1.9-18.4-4.6-6.6-3.2-14.7-7.2-29.8-7.2s-23.2,4-29.7,7.2c-5.5,2.7-9.4,4.6-18.4,4.6s-.2,0-.3,0v23c0,0,.2,0,.3,0,15,0,23.2-4,29.7-7.2,5.5-2.7,9.4-4.6,18.4-4.6s13,1.9,18.5,4.6c6.5,3.2,14.7,7.2,29.7,7.2v-23Z"/>
  <path class="st0" d="M1102.2,94.8c-9,0-13-1.9-18.4-4.6-6.6-3.2-14.7-7.2-29.8-7.2s-23.2,4-29.7,7.2c-5.5,2.7-9.4,4.6-18.4,4.6s-.2,0-.3,0v23c0,0,.2,0,.3,0,15,0,23.2-4,29.7-7.2,5.5-2.7,9.4-4.6,18.4-4.6s13,1.9,18.5,4.6c6.5,3.2,14.7,7.2,29.7,7.2v-23Z"/>
  <path class="st0" d="M1225.6,94.8c-9,0-13-1.9-18.4-4.6-6.6-3.2-14.7-7.2-29.8-7.2s-23.2,4-29.7,7.2c-5.5,2.7-9.4,4.6-18.4,4.6s-.2,0-.3,0v23c0,0,.2,0,.3,0,15,0,23.2-4,29.7-7.2,5.5-2.7,9.4-4.6,18.4-4.6s13,1.9,18.5,4.6c6.5,3.2,14.7,7.2,29.7,7.2v-23Z"/>
  <path class="st0" d="M1349,94.8c-9,0-13-1.9-18.4-4.6-6.6-3.2-14.7-7.2-29.8-7.2s-23.2,4-29.7,7.2c-5.5,2.7-9.4,4.6-18.4,4.6s-.2,0-.3,0v23c0,0,.2,0,.3,0,15,0,23.2-4,29.7-7.2,5.5-2.7,9.4-4.6,18.4-4.6s13,1.9,18.5,4.6c6.5,3.2,14.7,7.2,29.7,7.2v-23Z"/>
  <path class="st0" d="M1472.4,94.8c-9,0-13-1.9-18.4-4.6-6.6-3.2-14.7-7.2-29.8-7.2s-23.2,4-29.7,7.2c-5.5,2.7-9.4,4.6-18.4,4.6s-.2,0-.3,0v23c0,0,.2,0,.3,0,15,0,23.2-4,29.7-7.2,5.5-2.7,9.4-4.6,18.4-4.6s13,1.9,18.5,4.6c6.5,3.2,14.7,7.2,29.7,7.2v-23Z"/>
  <path class="st0" d="M670.4,31.2c-9,0-13-1.9-18.4-4.6-6.6-3.2-14.7-7.2-29.8-7.2s-23.2,4-29.7,7.2c-5.5,2.7-9.4,4.6-18.4,4.6s-.2,0-.3,0v23c0,0,.2,0,.3,0,15,0,23.2-4,29.7-7.2,5.5-2.7,9.4-4.6,18.4-4.6s13,1.9,18.5,4.6c6.5,3.2,14.7,7.2,29.7,7.2v-23Z"/>
  <path class="st0" d="M793.8,31.2c-9,0-13-1.9-18.4-4.6-6.6-3.2-14.7-7.2-29.8-7.2s-23.2,4-29.7,7.2c-5.5,2.7-9.4,4.6-18.4,4.6s-.2,0-.3,0v23c0,0,.2,0,.3,0,15,0,23.2-4,29.7-7.2,5.5-2.7,9.4-4.6,18.4-4.6s13,1.9,18.5,4.6c6.5,3.2,14.7,7.2,29.7,7.2v-23Z"/>
  <path class="st0" d="M917.2,31.2c-9,0-13-1.9-18.4-4.6-6.6-3.2-14.7-7.2-29.8-7.2s-23.2,4-29.7,7.2c-5.5,2.7-9.4,4.6-18.4,4.6s-.2,0-.3,0v23c0,0,.2,0,.3,0,15,0,23.2-4,29.7-7.2,5.5-2.7,9.4-4.6,18.4-4.6s13,1.9,18.5,4.6c6.5,3.2,14.7,7.2,29.7,7.2v-23Z"/>
  <path class="st0" d="M1040.6,31.2c-9,0-13-1.9-18.4-4.6-6.6-3.2-14.7-7.2-29.8-7.2s-23.2,4-29.7,7.2c-5.5,2.7-9.4,4.6-18.4,4.6s-.2,0-.3,0v23c0,0,.2,0,.3,0,15,0,23.2-4,29.7-7.2,5.5-2.7,9.4-4.6,18.4-4.6s13,1.9,18.5,4.6c6.5,3.2,14.7,7.2,29.7,7.2v-23Z"/>
  <path class="st0" d="M1163.9,31.2c-9,0-13-1.9-18.4-4.6-6.6-3.2-14.7-7.2-29.8-7.2s-23.2,4-29.7,7.2c-5.5,2.7-9.4,4.6-18.4,4.6s-.2,0-.3,0v23c0,0,.2,0,.3,0,15,0,23.2-4,29.7-7.2,5.5-2.7,9.4-4.6,18.4-4.6s13,1.9,18.5,4.6c6.5,3.2,14.7,7.2,29.7,7.2v-23Z"/>
  <path class="st0" d="M1287.3,31.2c-9,0-13-1.9-18.4-4.6-6.6-3.2-14.7-7.2-29.8-7.2s-23.2,4-29.7,7.2c-5.5,2.7-9.4,4.6-18.4,4.6s-.2,0-.3,0v23c0,0,.2,0,.3,0,15,0,23.2-4,29.7-7.2,5.5-2.7,9.4-4.6,18.4-4.6s13,1.9,18.5,4.6c6.5,3.2,14.7,7.2,29.7,7.2v-23Z"/>
  <path class="st0" d="M1410.7,31.2c-9,0-13-1.9-18.4-4.6-6.6-3.2-14.7-7.2-29.8-7.2s-23.2,4-29.7,7.2c-5.5,2.7-9.4,4.6-18.4,4.6s-.2,0-.3,0v23c0,0,.2,0,.3,0,15,0,23.2-4,29.7-7.2,5.5-2.7,9.4-4.6,18.4-4.6s13,1.9,18.5,4.6c6.5,3.2,14.7,7.2,29.7,7.2v-23Z"/>
  <path class="st0" d="M1534,31.2c-9,0-13-1.9-18.4-4.6-6.6-3.2-14.7-7.2-29.8-7.2s-23.2,4-29.7,7.2c-5.5,2.7-9.4,4.6-18.4,4.6s-.2,0-.3,0v23c0,0,.2,0,.3,0,15,0,23.2-4,29.7-7.2,5.5-2.7,9.4-4.6,18.4-4.6s13,1.9,18.5,4.6c6.5,3.2,14.7,7.2,29.7,7.2v-23Z"/>
</svg>